<svg width="24" height="24" viewBox="0 0 24 24" fill="none" xmlns="http://www.w3.org/2000/svg">
<path fill-rule="evenodd" clip-rule="evenodd" d="M6.5 3.25C5.25736 3.25 4.25 4.25736 4.25 5.5H3.5H2.75C2.75 3.42893 4.42893 1.75 6.5 1.75H17.5C17.9142 1.75 18.25 2.08579 18.25 2.5V15.5C18.25 15.9142 17.9142 16.25 17.5 16.25H6.5C5.26293 16.25 4.25 17.2576 4.25 18.5C4.25 18.9142 3.91421 19.25 3.5 19.25C3.08579 19.25 2.75 18.9142 2.75 18.5V5.5C2.75 5.49993 2.75 5.5 3.5 5.5C4.25 5.5 4.25 5.49993 4.25 5.5V15.5017C4.87779 15.0296 5.65755 14.75 6.5 14.75H16.75V3.25H6.5Z" fill="#1C1B1E"/>
<path fill-rule="evenodd" clip-rule="evenodd" d="M20.5 2.75C20.9142 2.75 21.25 3.08579 21.25 3.5V21.5C21.25 21.9142 20.9142 22.25 20.5 22.25H6.5C4.42893 22.25 2.75 20.5711 2.75 18.5C2.75 16.4289 4.42893 14.75 6.5 14.75H17.4995C17.4996 14.75 17.5 14.75 17.5 15.5C17.5 16.25 17.5 16.25 17.4999 16.25H6.5C5.25736 16.25 4.25 17.2574 4.25 18.5C4.25 19.7426 5.25736 20.75 6.5 20.75H19.75V3.5C19.75 3.08579 20.0858 2.75 20.5 2.75ZM18.25 15.5C18.25 15.9142 17.9141 16.25 17.4999 16.25L17.5 15.5L17.4995 14.75C17.9137 14.75 18.25 15.0858 18.25 15.5Z" fill="#1C1B1E"/>
<path fill-rule="evenodd" clip-rule="evenodd" d="M6.25 18.5C6.25 18.0858 6.58579 17.75 7 17.75H17C17.4142 17.75 17.75 18.0858 17.75 18.5C17.75 18.9142 17.4142 19.25 17 19.25H7C6.58579 19.25 6.25 18.9142 6.25 18.5Z" fill="#1C1B1E"/>
</svg>
