<svg width="24" height="24" viewBox="0 0 24 24" fill="none" xmlns="http://www.w3.org/2000/svg">
<path fill-rule="evenodd" clip-rule="evenodd" d="M1.25 7.5C1.25 7.08579 1.58579 6.75 2 6.75H6C6.41421 6.75 6.75 7.08579 6.75 7.5C6.75 7.91421 6.41421 8.25 6 8.25H2.75V19.75H21.25V8.25H18C17.5858 8.25 17.25 7.91421 17.25 7.5C17.25 7.08579 17.5858 6.75 18 6.75H22C22.4142 6.75 22.75 7.08579 22.75 7.5V20.5C22.75 20.9142 22.4142 21.25 22 21.25H2C1.58579 21.25 1.25 20.9142 1.25 20.5V7.5Z" fill="#1C1B1E"/>
<path fill-rule="evenodd" clip-rule="evenodd" d="M12 1.75C12.4142 1.75 12.75 2.08579 12.75 2.5V9.5C12.75 9.91421 12.4142 10.25 12 10.25C11.5858 10.25 11.25 9.91421 11.25 9.5V2.5C11.25 2.08579 11.5858 1.75 12 1.75Z" fill="#1C1B1E"/>
<path fill-rule="evenodd" clip-rule="evenodd" d="M8.46967 5.96967C8.76256 5.67678 9.23744 5.67678 9.53033 5.96967L12 8.43934L14.4697 5.96967C14.7626 5.67678 15.2374 5.67678 15.5303 5.96967C15.8232 6.26256 15.8232 6.73744 15.5303 7.03033L12.5303 10.0303C12.2374 10.3232 11.7626 10.3232 11.4697 10.0303L8.46967 7.03033C8.17678 6.73744 8.17678 6.26256 8.46967 5.96967Z" fill="#1C1B1E"/>
<path fill-rule="evenodd" clip-rule="evenodd" d="M1.40004 7.05004C1.64857 6.71867 2.11867 6.65152 2.45004 6.90004L12 14.0625L21.55 6.90004C21.8814 6.65152 22.3515 6.71867 22.6 7.05004C22.8486 7.38142 22.7814 7.85152 22.45 8.10004L12.45 15.6C12.1834 15.8 11.8167 15.8 11.55 15.6L1.55004 8.10004C1.21867 7.85152 1.15152 7.38142 1.40004 7.05004Z" fill="#1C1B1E"/>
</svg>
