<svg width="105" height="105" viewBox="0 0 105 105" fill="none" xmlns="http://www.w3.org/2000/svg">
<path fill-rule="evenodd" clip-rule="evenodd" d="M9.84517 13.1249C9.84525 8.89648 13.2731 5.46875 17.5014 5.46875H87.501C91.7295 5.46875 95.1573 8.8966 95.1573 13.125V91.875C95.1573 96.1035 91.7295 99.5312 87.501 99.5312H17.5C13.2715 99.5312 9.84367 96.1032 9.84375 91.8749L9.84517 13.1249ZM17.5014 12.0312C16.8974 12.0312 16.4077 12.5209 16.4077 13.125L16.4062 91.8751C16.4062 92.479 16.8959 92.9688 17.5 92.9688H87.501C88.1051 92.9688 88.5948 92.4791 88.5948 91.875V13.125C88.5948 12.5209 88.1051 12.0312 87.501 12.0312H17.5014Z" fill="#fff"/>
<path fill-rule="evenodd" clip-rule="evenodd" d="M25.1562 21.875C25.1562 20.0628 26.6253 18.5938 28.4375 18.5938H76.5625C78.3747 18.5938 79.8438 20.0628 79.8438 21.875V41.5625C79.8438 43.3747 78.3747 44.8438 76.5625 44.8438H28.4375C26.6253 44.8438 25.1562 43.3747 25.1562 41.5625V21.875ZM31.7188 25.1562V38.2812H73.2812V25.1562H31.7188Z" fill="#fff"/>
<path fill-rule="evenodd" clip-rule="evenodd" d="M23.9298 58.9298C25.2112 57.6484 27.2888 57.6484 28.5702 58.9298L43.8827 74.2423C45.1641 75.5237 45.1641 77.6013 43.8827 78.8827C42.6013 80.1641 40.5237 80.1641 39.2423 78.8827L23.9298 63.5702C22.6484 62.2888 22.6484 60.2112 23.9298 58.9298Z" fill="#fff"/>
<path fill-rule="evenodd" clip-rule="evenodd" d="M43.8827 58.9298C45.1641 60.2112 45.1641 62.2888 43.8827 63.5702L28.5702 78.8827C27.2888 80.1641 25.2112 80.1641 23.9298 78.8827C22.6484 77.6013 22.6484 75.5237 23.9298 74.2423L39.2423 58.9298C40.5237 57.6484 42.6013 57.6484 43.8827 58.9298Z" fill="#fff"/>
<path fill-rule="evenodd" clip-rule="evenodd" d="M57.9688 76.5625C57.9688 74.7503 59.4378 73.2812 61.25 73.2812H78.75C80.5622 73.2812 82.0312 74.7503 82.0312 76.5625C82.0312 78.3747 80.5622 79.8438 78.75 79.8438H61.25C59.4378 79.8438 57.9688 78.3747 57.9688 76.5625Z" fill="#fff"/>
<path fill-rule="evenodd" clip-rule="evenodd" d="M57.9688 63.4375C57.9688 61.6253 59.4378 60.1562 61.25 60.1562H78.75C80.5622 60.1562 82.0312 61.6253 82.0312 63.4375C82.0312 65.2497 80.5622 66.7188 78.75 66.7188H61.25C59.4378 66.7188 57.9688 65.2497 57.9688 63.4375Z" fill="#fff"/>
</svg>
