<svg width="24" height="24" viewBox="0 0 24 24" fill="none" xmlns="http://www.w3.org/2000/svg">
<path fill-rule="evenodd" clip-rule="evenodd" d="M13.5856 5.53151C13.3269 5.20806 12.8549 5.15562 12.5315 5.41438L2.53145 13.4144C2.22445 13.66 2.15921 14.101 2.38194 14.4249L7.88194 22.4249C8.1166 22.7663 8.58354 22.8527 8.92487 22.6181C9.2662 22.3834 9.35267 21.9165 9.118 21.5751L4.01318 14.1499L13.4685 6.58568C13.7919 6.32692 13.8444 5.85495 13.5856 5.53151Z" fill="#1C1B1E"/>
<path fill-rule="evenodd" clip-rule="evenodd" d="M14.3721 1.34884C14.0784 1.18103 13.7088 1.23053 13.4697 1.46969L11.4697 3.46969C11.2305 3.70884 11.181 4.07847 11.3488 4.37212L15.3488 11.3721C15.4648 11.5751 15.6688 11.7124 15.9004 11.7434C16.1321 11.7744 16.365 11.6956 16.5303 11.5303L21.5303 6.53035C21.6956 6.36506 21.7744 6.13215 21.7434 5.90047C21.7123 5.66878 21.5751 5.46481 21.3721 5.34884L14.3721 1.34884ZM19.7753 6.16402L16.164 9.77535L12.9354 4.12528L14.1253 2.93541L19.7753 6.16402Z" fill="#1C1B1E"/>
<path fill-rule="evenodd" clip-rule="evenodd" d="M18.75 22C18.75 21.5858 18.4142 21.25 18 21.25H5C4.58579 21.25 4.25 21.5858 4.25 22C4.25 22.4142 4.58579 22.75 5 22.75H18C18.4142 22.75 18.75 22.4142 18.75 22Z" fill="#1C1B1E"/>
<path fill-rule="evenodd" clip-rule="evenodd" d="M15.5 19.25C15.0858 19.25 14.75 19.5858 14.75 20V22C14.75 22.4142 15.0858 22.75 15.5 22.75C15.9142 22.75 16.25 22.4142 16.25 22V20C16.25 19.5858 15.9142 19.25 15.5 19.25Z" fill="#1C1B1E"/>
</svg>
