<svg width="24" height="24" viewBox="0 0 24 24" fill="none" xmlns="http://www.w3.org/2000/svg">
<path fill-rule="evenodd" clip-rule="evenodd" d="M13.7419 2.69455C14.6144 2.5645 15.5076 2.60711 16.3668 2.82256L16.3668 2.82256C17.5027 3.10739 18.5786 3.69426 19.4655 4.58123L18.976 5.07076L19.4655 4.58123C20.3525 5.46818 20.9394 6.54401 21.2242 7.67998C21.4397 8.53919 21.4823 9.43237 21.3522 10.3048C21.2959 10.683 20.9436 10.9439 20.5654 10.8875C20.1872 10.8311 19.9264 10.4788 19.9827 10.1007C20.086 9.40777 20.0521 8.69842 19.8812 8.01674L19.8812 8.01671C19.6556 7.11712 19.1914 6.26519 18.4865 5.5603C17.7816 4.85542 16.9296 4.39117 16.0301 4.16559C15.3484 3.99466 14.639 3.96075 13.9461 4.06403C13.5679 4.12041 13.2156 3.85953 13.1593 3.48136C13.1029 3.10319 13.3638 2.75092 13.7419 2.69455Z" fill="#1C1B1E"/>
<path fill-rule="evenodd" clip-rule="evenodd" d="M13.9131 5.9979C14.9592 5.84195 16.0662 6.16671 16.8733 6.97378L16.8733 6.97379C17.6804 7.78091 18.0051 8.88795 17.8492 9.93402C17.7928 10.3122 17.4405 10.5731 17.0623 10.5167C16.6842 10.4603 16.4233 10.108 16.4797 9.72987C16.5737 9.09909 16.378 8.4366 15.8943 7.95288C15.8942 7.95288 15.8942 7.95287 15.8942 7.95287M15.8942 7.95287C15.4104 7.46912 14.748 7.27335 14.1172 7.36738C13.7391 7.42375 13.3868 7.16288 13.3304 6.78471C13.274 6.40654 13.5349 6.05427 13.9131 5.9979" fill="#1C1B1E"/>
<path fill-rule="evenodd" clip-rule="evenodd" d="M5.6783 5.44321C4.91863 5.44321 4.44477 6.12392 4.66179 6.76709C5.43991 9.07318 6.88992 12.5423 9.0524 14.7048L9.05241 14.7048C11.2148 16.8672 14.684 18.3173 16.9901 19.0954L16.9901 19.0954C17.6332 19.3124 18.314 18.8386 18.314 18.0789V15.7373C18.314 15.6534 18.2686 15.5763 18.1954 15.5356L18.1953 15.5356L16.1556 14.4016C16.089 14.3645 16.0085 14.3628 15.9403 14.3969L15.9403 14.3969L13.7651 15.4844C13.6291 15.5525 13.4744 15.5738 13.3251 15.5451L13.4555 14.8652C13.3251 15.5451 13.3249 15.5451 13.3247 15.5451L13.3242 15.545L13.3231 15.5448L13.3205 15.5442L13.3135 15.5429L13.2927 15.5385C13.2757 15.5349 13.2528 15.5298 13.2243 15.5231C13.1673 15.5096 13.0881 15.4895 12.9905 15.4614C12.7956 15.4051 12.5255 15.3161 12.2116 15.1823C11.5865 14.9159 10.7705 14.4647 10.0315 13.7257L10.0315 13.7257C9.29254 12.9868 8.84007 12.1696 8.57244 11.5436C8.43803 11.2292 8.34835 10.9586 8.29158 10.7633C8.26315 10.6656 8.24285 10.5862 8.22924 10.5292C8.22243 10.5007 8.21728 10.4777 8.21363 10.4608L8.20923 10.4399L8.20782 10.433L8.20731 10.4304L8.2071 10.4293L8.20701 10.4288C8.20697 10.4286 8.20692 10.4284 8.8865 10.2962L8.20692 10.4284C8.17777 10.2785 8.19899 10.1232 8.26728 9.98662L9.35503 7.81111L9.35505 7.81107C9.38909 7.743 9.38737 7.66248 9.3504 7.59587L8.22133 5.56203C8.18059 5.48866 8.1033 5.44321 8.01954 5.44321H5.6783ZM9.62081 10.3756C9.62092 10.376 9.62104 10.3764 9.62115 10.3768C9.66471 10.5266 9.73629 10.7437 9.84559 10.9993C10.0654 11.5135 10.4302 12.1663 11.0105 12.7466C11.0105 12.7466 11.0105 12.7466 11.0105 12.7466M11.0105 12.7466C11.5908 13.3269 12.2421 13.6902 12.7544 13.9085C13.0092 14.0171 13.2253 14.088 13.3745 14.1311C13.3748 14.1311 13.375 14.1312 13.3753 14.1313L15.321 13.1585C15.321 13.1585 15.3211 13.1584 15.3211 13.1584C15.7982 12.9199 16.3623 12.9322 16.8285 13.1914L16.5155 13.7543L16.8285 13.1914L18.8681 14.3254C19.3808 14.6104 19.6986 15.1508 19.6986 15.7373V18.0789C19.6986 19.7041 18.164 20.9528 16.5474 20.4073C14.2124 19.6194 10.4772 18.0877 8.07332 15.6838C5.66944 13.28 4.13773 9.54481 3.34984 7.20976L3.961 7.00355L3.34984 7.20976C2.80437 5.59315 4.05305 4.05859 5.6783 4.05859H8.01954C8.6064 4.05859 9.14702 4.3769 9.43185 4.88987L9.43188 4.88993L10.561 6.92383L10.561 6.92385C10.8197 7.38984 10.8319 7.95351 10.5935 8.43033C10.5935 8.43034 10.5935 8.43036 10.5934 8.43037L9.62081 10.3756" fill="#1C1B1E"/>
</svg>
