<svg width="1041" height="1018" viewBox="0 0 1041 1018" fill="none" xmlns="http://www.w3.org/2000/svg">
<rect width="1041" height="1018" fill="white"/>
<g clip-path="url(#clip0_5_11)">
<path d="M221 2H-1219V4736H221V2Z" fill="#FBFBFB"/>
<path fill-rule="evenodd" clip-rule="evenodd" d="M108.75 58.5C110.683 58.5 112.25 56.933 112.25 55C112.25 53.067 110.683 51.5 108.75 51.5C106.817 51.5 105.25 53.067 105.25 55C105.25 56.933 106.817 58.5 108.75 58.5ZM108.75 60C111.512 60 113.75 57.7614 113.75 55C113.75 52.2386 111.512 50 108.75 50C105.989 50 103.75 52.2386 103.75 55C103.75 57.7614 105.989 60 108.75 60Z" fill="black"/>
<path fill-rule="evenodd" clip-rule="evenodd" d="M105.75 63.75C103.403 63.75 101.5 65.6528 101.5 68V69C101.5 69.4142 101.164 69.75 100.75 69.75C100.336 69.75 100 69.4142 100 69V68C100 64.8244 102.575 62.25 105.75 62.25H111.75C114.926 62.25 117.5 64.8244 117.5 68V69C117.5 69.4142 117.164 69.75 116.75 69.75C116.336 69.75 116 69.4142 116 69V68C116 65.6528 114.097 63.75 111.75 63.75H105.75Z" fill="black"/>
<path fill-rule="evenodd" clip-rule="evenodd" d="M52.5458 65L56.9445 60.7847C58.0082 59.7653 59.6862 59.7653 60.7498 60.7847L65.1484 65H67.6941C68.3027 65 68.7701 65.539 68.6841 66.1414L67.2151 76.4243C67.0039 77.9022 65.7382 79 64.2452 79H53.449C51.9561 79 50.6903 77.9022 50.4792 76.4243L49.0102 66.1414C48.9241 65.539 49.3916 65 50.0001 65H52.5458ZM57.9822 61.8677C58.4657 61.4043 59.2285 61.4043 59.712 61.8677L62.9805 65H54.7137L57.9822 61.8677ZM50.5766 66.5L51.9641 76.2121C52.0697 76.9511 52.7025 77.5 53.449 77.5H64.2452C64.9917 77.5 65.6246 76.9511 65.7302 76.2121L67.1176 66.5H50.5766Z" fill="black"/>
<path fill-rule="evenodd" clip-rule="evenodd" d="M54.8472 69.25C55.2614 69.25 55.5972 69.5858 55.5972 70V74C55.5972 74.4142 55.2614 74.75 54.8472 74.75C54.433 74.75 54.0972 74.4142 54.0972 74V70C54.0972 69.5858 54.433 69.25 54.8472 69.25Z" fill="black"/>
<path fill-rule="evenodd" clip-rule="evenodd" d="M58.8472 69.25C59.2614 69.25 59.5972 69.5858 59.5972 70V74C59.5972 74.4142 59.2614 74.75 58.8472 74.75C58.433 74.75 58.0972 74.4142 58.0972 74V70C58.0972 69.5858 58.433 69.25 58.8472 69.25Z" fill="black"/>
<path fill-rule="evenodd" clip-rule="evenodd" d="M62.8472 69.25C63.2614 69.25 63.5972 69.5858 63.5972 70V74C63.5972 74.4142 63.2614 74.75 62.8472 74.75C62.433 74.75 62.0972 74.4142 62.0972 74V70C62.0972 69.5858 62.433 69.25 62.8472 69.25Z" fill="black"/>
<path fill-rule="evenodd" clip-rule="evenodd" d="M15.8723 64.8116C17.1996 63.2436 18 61.2153 18 59C18 54.0294 13.9706 50 9 50C4.0295 50 0 54.0294 0 59C0 63.9706 4.0295 68 9 68C11.2153 68 13.2436 67.1996 14.8116 65.8723L17.4697 68.5303C17.7626 68.8232 18.2374 68.8232 18.5303 68.5303C18.8232 68.2374 18.8232 67.7626 18.5303 67.4697L15.8723 64.8116ZM16.5 59C16.5 63.1421 13.1421 66.5 9 66.5C4.8579 66.5 1.5 63.1421 1.5 59C1.5 54.8579 4.8579 51.5 9 51.5C13.1421 51.5 16.5 54.8579 16.5 59Z" fill="black"/>
<path d="M69.8472 64C73.7132 64 76.8472 60.866 76.8472 57C76.8472 53.134 73.7132 50 69.8472 50C65.9812 50 62.8472 53.134 62.8472 57C62.8472 60.866 65.9812 64 69.8472 64Z" fill="#EA0025"/>
<path d="M67.3572 60.92H72.1672V60.16H68.7272C70.0172 59.11 71.9572 57.58 71.9572 55.78C71.9572 54.44 71.0772 53.64 69.7172 53.64C68.4172 53.64 67.4472 54.44 67.3872 55.98H68.2672C68.3072 55.07 68.7872 54.42 69.7272 54.42C70.7072 54.42 71.0572 55.02 71.0572 55.82C71.0572 57.3 69.2572 58.74 67.3572 60.27V60.92Z" fill="white"/>
</g>
<g clip-path="url(#clip1_5_11)">
<path d="M1339 -58H-101V4676H1339V-58Z" fill="#FBFBFB"/>
<path d="M17.5 35C27.165 35 35 27.165 35 17.5C35 7.83502 27.165 0 17.5 0C7.83502 0 0 7.83502 0 17.5C0 27.165 7.83502 35 17.5 35Z" fill="black"/>
<path d="M19.5583 23.6457L19.5424 16.8986L15.5585 16.7645L15.0837 23.4999C14.721 23.5649 14.4505 23.8707 14.4289 24.2391L13.9702 28.3996C13.9136 28.923 14.229 29.3811 14.6517 29.3954L19.5906 29.5592C20.0158 29.5711 20.3537 29.1423 20.3401 28.6092L20.1764 24.4423C20.1861 24.0639 19.928 23.7311 19.5587 23.6457H19.5583Z" fill="white"/>
<path d="M21.2753 9.98931L14.6679 9.75714C14.4036 9.75006 14.1567 9.62563 13.9935 9.41825C13.6561 8.96303 13.1285 8.68807 12.5618 8.67203C11.5281 8.63843 10.6617 9.44832 10.6257 10.482L10.547 12.819C10.5152 13.8521 11.3239 14.7172 12.3569 14.7551C12.9217 14.7753 13.4641 14.5376 13.833 14.1092C14.0093 13.9127 14.2652 13.8052 14.5287 13.8165C14.6757 13.8214 14.8147 13.8845 14.915 13.9918C15.0153 14.0991 15.0689 14.242 15.064 14.389L15.0168 15.7883L20.1475 15.9611L20.1878 14.5494C20.1921 14.403 20.2551 14.2641 20.3618 14.1643C20.4686 14.0645 20.6114 14.011 20.7578 14.0165L24.7709 14.1517L24.7776 13.736C24.8081 12.7758 24.4571 11.8416 23.8005 11.1391C23.1438 10.4367 22.2353 10.0236 21.2752 9.98948L21.2753 9.98931Z" fill="white"/>
</g>
<defs>
<clipPath id="clip0_5_11">
<rect width="137" height="42" fill="white" transform="translate(0 50)"/>
</clipPath>
<clipPath id="clip1_5_11">
<rect width="35" height="35" fill="white"/>
</clipPath>
</defs>
</svg>
