<svg width="2050" height="743" viewBox="0 0 2050 743" fill="none" xmlns="http://www.w3.org/2000/svg">
  <path d="M1025.21 2C1589.92 2 2048.42 167.679 2048.42 371.737C2048.42 575.794 1589.92 741.473 1025.21 741.473C460.501 741.473 2 575.794 2 371.737C2 167.679 460.501 2 1025.21 2Z" stroke="#0E0E0E" stroke-width="3"/>
  <!-- // 전깃줄 -->
  <path d="M1235.9 680.414C1236.54 681.333 1236.86 682.409 1237.35 683.428L1239.54 687.984C1245.14 699.661 1237.94 714.221 1223.46 720.505L1213.4 724.876C1209.42 726.601 1205.38 727.81 1201.4 728.526C1191.89 730.24 1184.74 726.991 1177.72 723.463C1180.47 721.291 1182.87 718.864 1184.89 716.263C1190.17 709.439 1189.33 703.36 1186.05 696.526L1233.71 675.837L1235.9 680.414Z" fill="black"/>
  <!-- // 3번 새 몸통 -->
  <path d="M1229.19 665.691L1236.12 680.115L1188.4 700.465L1181.47 686.042C1180.55 684.111 1180.01 682.108 1179.83 680.111C1179.74 679.14 1179.73 678.172 1179.81 677.212C1180.31 670.788 1184.43 664.821 1191.1 661.977L1203.65 656.622C1213.36 652.481 1224.79 656.541 1229.19 665.691Z" fill="black"/>
  <!-- // 3번 새 머리 -->
  <path d="M1223.72 659.725L1229.03 656.632C1229.36 656.443 1229.77 656.729 1229.7 657.097L1228.18 664.816" fill="black"/>
  <!-- // 3번 새 부리 -->
  <path d="M1224.89 719.111L1229.7 731.336C1229.97 732.024 1229.63 732.803 1228.94 733.073V733.073C1228.25 733.344 1227.47 733.005 1227.2 732.316L1222.4 720.091C1222.13 719.403 1222.47 718.624 1223.15 718.354V718.354C1223.84 718.083 1224.62 718.422 1224.89 719.111Z" fill="black"/>
  <!-- // 3번 새 오른쪽 다리 -->
  <path d="M1215.3 723.655L1217.74 733.441C1217.92 734.159 1217.48 734.887 1216.77 735.065V735.065C1216.05 735.244 1215.32 734.807 1215.14 734.089L1212.7 724.304C1212.52 723.586 1212.96 722.858 1213.68 722.679V722.679C1214.4 722.5 1215.12 722.938 1215.3 723.655Z" fill="black"/>
  <!-- // 3번 새 왼쪽 다리 -->
  <path d="M1021.38 728.812L1024.07 739.248C1024.22 739.835 1023.87 740.435 1023.28 740.586C1022.69 740.738 1022.09 740.384 1021.94 739.796L1019.25 729.361C1019.1 728.773 1019.46 728.174 1020.04 728.022C1020.63 727.871 1021.23 728.225 1021.38 728.812Z" fill="black"/>
  <!-- // ?? -->
  <path d="M1011.19 729.222L1009.15 739.803C1009.04 740.399 1008.46 740.789 1007.86 740.674C1007.27 740.559 1006.88 739.983 1006.99 739.387L1009.03 728.806C1009.15 728.21 1009.72 727.82 1010.32 727.934C1010.91 728.049 1011.3 728.626 1011.19 729.222Z" fill="black"/>
  <!-- // ?? -->
  <path d="M792.473 683.632C792.099 684.739 792.032 685.917 791.807 687.085L790.801 692.306C788.224 705.683 797.328 718.472 811.137 720.871L820.741 722.539C824.531 723.197 828.281 723.313 831.879 722.948C840.476 722.075 848.214 718.459 853.624 712.954C850.81 711.506 848.248 709.704 845.987 707.62C840.056 702.152 837.434 694.116 838.943 686.286L793.483 678.389L792.473 683.632Z" fill="black"/>
  <!-- // 1번 새 몸통 -->
  <path d="M796.119 666.335L793.286 680.346L838.711 687.795L841.544 673.784C841.924 671.908 841.954 670.053 841.677 668.28C841.546 667.417 841.341 666.576 841.067 665.758C839.243 660.288 834.41 655.988 828.062 654.947L816.11 652.988C806.865 651.472 797.916 657.447 796.119 666.335Z" fill="black"/>
  <!-- // 1번 새 머리 -->
  <path d="M801.389 662.212L792.567 661.761C792.028 661.734 791.583 662.033 791.847 662.246L797.401 666.739" fill="black"/>
  <!-- // 1번 새 윗부리 -->
  <path d="M799.706 670.504L791.369 667.587C790.86 667.408 790.954 666.844 791.279 666.747L797.727 664.805" fill="black"/>
  <!-- // 1번 새 밑부리 -->
  <path d="M806.599 733.213C807.333 733.314 808.005 732.77 808.101 731.997L809.807 718.277C809.903 717.504 809.386 716.795 808.653 716.694C807.919 716.593 807.246 717.137 807.15 717.91L805.444 731.63C805.348 732.403 805.865 733.112 806.599 733.213Z" fill="black"/>
  <!-- // 1번 새 왼쪽 다리 -->
  <path d="M817.554 732.169V720.042C817.554 719.302 818.155 718.702 818.894 718.702V718.702C819.634 718.702 820.234 719.302 820.234 720.042V732.169C820.234 732.908 819.634 733.509 818.894 733.509V733.509C818.155 733.509 817.554 732.908 817.554 732.169Z" fill="black"/>
  <!-- // 1번 새 오른쪽 다리 -->
  <path d="M1049.23 721.362C1049.23 735.73 1034.15 742.264 1015.54 742.264C996.93 742.264 981.844 735.73 981.844 721.362C981.844 706.994 996.93 695.347 1015.54 695.347C1034.15 695.347 1049.23 706.994 1049.23 721.362Z" fill="black"/>
  <!-- // 2번 새 몸통 -->
  <path d="M1036.65 687.318L1037.05 709.332L994.433 709.867L994.035 687.231C993.979 685.649 994.237 684.131 994.764 682.721C995.018 682.035 995.335 681.375 995.712 680.745C998.225 676.528 1003.3 673.674 1009.26 673.687L1020.47 673.709C1029.14 673.727 1036.39 679.819 1036.65 687.318Z" fill="black"/>
  <!-- // 2번 새 머리 -->
  <path d="M1034.98 682.49L1040.57 685.092C1040.91 685.251 1040.9 685.751 1040.56 685.902L1033.28 689.086" fill="black"/>
  <!-- // 2번 새 부리 -->
</svg>
